<svg xmlns="http://www.w3.org/2000/svg" xmlns:xlink="http://www.w3.org/1999/xlink" width="858" height="172" viewBox="0 0 858 172">
  <defs>
    <clipPath id="clip-path">
      <rect id="Rectangle_11" data-name="Rectangle 11" width="130" height="130"/>
    </clipPath>
    <clipPath id="clip-full-logo_1">
      <rect width="858" height="172"/>
    </clipPath>
  </defs>
  <g id="full-logo_1" data-name="full-logo – 1" clip-path="url(#clip-full-logo_1)">
    <text id="asaanjo" transform="translate(175 140)" fill="#1f1fd5" font-size="187" font-family="PublicSans-Regular, Public Sans"><tspan x="0" y="0">asaanjo</tspan></text>
    <g id="logo" transform="translate(13 26)" clip-path="url(#clip-path)">
      <circle id="Ellipse_6" data-name="Ellipse 6" cx="2.5" cy="2.5" r="2.5" transform="translate(12 70)" fill="#fff"/>
      <g id="Path_4" data-name="Path 4" transform="translate(8.327 7.358)">
        <path id="Path_7" data-name="Path 7" d="M83.193,139.583a60.749,60.749,0,0,1-6.426-.333,52.1,52.1,0,0,1-5.926-.975,46.521,46.521,0,0,1-5.451-1.583,43.544,43.544,0,0,1-5-2.157,42.917,42.917,0,0,1-4.576-2.7,44.49,44.49,0,0,1-4.175-3.206,51.077,51.077,0,0,1-7.244-7.8,68.149,68.149,0,0,1-5.927-9.436,97.148,97.148,0,0,1-4.8-10.8,171.477,171.477,0,0,1-6.956-24.6c-.765-8.771-1.456-18.017-.783-26.2a57.69,57.69,0,0,1,.77-5.871,39.1,39.1,0,0,1,1.383-5.366A27.434,27.434,0,0,1,30.192,33.8a21.055,21.055,0,0,1,2.947-4.012,23,23,0,0,1,9.67-5.9,40.865,40.865,0,0,1,12.819-1.867,71.053,71.053,0,0,1,22.047,3.83,118.165,118.165,0,0,1,23.242,10.269c2.371,1.3,5.057,2.767,8.295,4.43a126.548,126.548,0,0,1,14.526,9.578,163.941,163.941,0,0,1,13.086,10.5,30.874,30.874,0,0,1,7.427,10.16,27.316,27.316,0,0,1,1.505,3.948A19.355,19.355,0,0,1,146.436,80a61.215,61.215,0,0,1-4.869,24.454,55.052,55.052,0,0,1-13.381,18.8,58.146,58.146,0,0,1-9.312,6.944,62.786,62.786,0,0,1-10.755,5.128,68.983,68.983,0,0,1-11.97,3.176A76.492,76.492,0,0,1,83.193,139.583Z" transform="translate(-25.494 -21.863)" fill="#1f1fd5"/>
        <path id="Path_8" data-name="Path 8" d="M55.292,21.853a40.7,40.7,0,0,0-12.768,1.859,22.834,22.834,0,0,0-9.6,5.856A20.892,20.892,0,0,0,30,33.548a27.271,27.271,0,0,0-2.1,4.717,38.937,38.937,0,0,0-1.377,5.343,57.528,57.528,0,0,0-.767,5.854c-.672,8.17.018,17.405.782,26.166A171.279,171.279,0,0,0,33.485,100.2a96.985,96.985,0,0,0,4.789,10.782,67.982,67.982,0,0,0,5.912,9.413,50.909,50.909,0,0,0,7.22,7.778,44.326,44.326,0,0,0,4.16,3.194,42.744,42.744,0,0,0,4.558,2.688,43.375,43.375,0,0,0,4.982,2.149,46.35,46.35,0,0,0,5.432,1.578,51.945,51.945,0,0,0,5.908.972,60.588,60.588,0,0,0,6.409.332A76.329,76.329,0,0,0,95.785,138a68.822,68.822,0,0,0,11.942-3.169,62.624,62.624,0,0,0,10.727-5.114,57.981,57.981,0,0,0,9.285-6.924,54.888,54.888,0,0,0,13.342-18.741,61.052,61.052,0,0,0,4.855-24.389,19.2,19.2,0,0,0-.672-5.211,27.18,27.18,0,0,0-1.5-3.925,30.718,30.718,0,0,0-7.39-10.108,163.771,163.771,0,0,0-13.071-10.488,126.4,126.4,0,0,0-14.5-9.564c-3.239-1.664-5.927-3.134-8.3-4.432A118.032,118.032,0,0,0,77.287,25.675a70.889,70.889,0,0,0-22-3.822m0-.327a71.264,71.264,0,0,1,22.1,3.839c15.482,5.154,19.17,8.344,31.56,14.708,7.08,3.637,22.5,15.24,27.65,20.106a31.032,31.032,0,0,1,7.464,10.212,20.389,20.389,0,0,1,2.2,9.269c0,35.989-27.672,59.75-63.406,59.75s-49.2-28.944-56.642-63.733C24.651,57.771,23.53,39.05,32.684,29.343,37.8,23.921,46,21.526,55.292,21.526Z" transform="translate(-25.157 -21.526)" fill="#1f1fd5"/>
      </g>
      <path id="Path_5" data-name="Path 5" d="M1747.74,118.433l58.586-29.769,4.568,3.05,2.192,1.686-61.163,32.852Z" transform="translate(-1708.955 -59.703)" fill="#ffc921" stroke="#fff" stroke-width="1"/>
      <path id="Path_6" data-name="Path 6" d="M1704.5,131.387l66.881-33.873,3.355,2.768,1.582,1.451.582.551.484.619-69.611,34.421Z" transform="translate(-1656.32 -55.536)" fill="#ffc921" stroke="#fff" stroke-width="1"/>
    </g>
  </g>
</svg>
