<svg xmlns="http://www.w3.org/2000/svg" xmlns:xlink="http://www.w3.org/1999/xlink" width="400" height="400" viewBox="0 0 400 400">
  <defs>
    <clipPath id="clip-logo">
      <rect width="400" height="400"/>
    </clipPath>
  </defs>
  <g id="logo" clip-path="url(#clip-logo)">
    <circle id="Ellipse_6" data-name="Ellipse 6" cx="7.5" cy="7.5" r="7.5" transform="translate(38 215)" fill="#fff"/>
    <g id="Path_4" data-name="Path 4" transform="translate(0.335 1)" fill="#1f1fd5">
      <path d="M 201.8008575439453 381.923828125 C 195.0706176757812 381.923828125 188.4518127441406 381.5812072753906 182.1283111572266 380.905517578125 C 175.9157104492188 380.2416687011719 169.8114166259766 379.2374267578125 163.9849090576172 377.920654296875 C 158.2651214599609 376.6279602050781 152.6499633789062 374.9972534179688 147.2954711914062 373.0738220214844 C 142.0433654785156 371.1871032714844 136.8919219970703 368.9648742675781 131.9842681884766 366.4687194824219 C 127.1747131347656 364.0224609375 122.4614639282227 361.2431030273438 117.9754180908203 358.207763671875 C 113.5835647583008 355.2362060546875 109.2832183837891 351.9338684082031 105.1937637329102 348.392578125 C 97.29471588134766 341.5521545410156 89.83341217041016 333.5148620605469 83.01706695556641 324.5038757324219 C 76.54146575927734 315.9432067871094 70.43686676025391 306.223876953125 64.87286376953125 295.6156616210938 C 59.63301467895508 285.6253662109375 54.69181442260742 274.5004577636719 50.18661499023438 262.5500183105469 C 42.12696838378906 241.1712036132812 35.16037368774414 216.5326843261719 28.88991165161133 187.2318420410156 C 26.54653739929199 160.3805999755859 24.43247032165527 132.0719299316406 26.49261474609375 107.0108642578125 C 27.01856422424316 100.6133117675781 27.81111526489258 94.56621551513672 28.84841537475586 89.03736114501953 C 29.95411491394043 83.14366149902344 31.37906455993652 77.61701202392578 33.08366394042969 72.61086273193359 C 34.88256454467773 67.32766723632812 37.05531311035156 62.44016265869141 39.54146575927734 58.08401489257812 C 42.14666366577148 53.51936340332031 45.18231582641602 49.38656616210938 48.56416320800781 45.80036544799805 C 56.07116317749023 37.8394660949707 66.03126525878906 31.76346397399902 78.16791534423828 27.74116516113281 C 89.61056518554688 23.9488639831543 102.8150177001953 22.02596473693848 117.4143676757812 22.02596473693848 C 138.5273590087891 22.02596473693848 161.8669128417969 26.08086395263672 184.9098663330078 33.75231552124023 C 219.8890686035156 45.39751434326172 235.0636596679688 53.699462890625 256.0660705566406 65.18976593017578 C 263.3234558105469 69.16031646728516 271.5492248535156 73.66056060791016 281.4600219726562 78.75141143798828 C 291.2201232910156 83.76486206054688 307.4297180175781 94.45276641845703 325.9324035644531 108.0746612548828 C 342.5413513183594 120.3023681640625 358.2671508789062 132.9215698242188 365.9957275390625 140.2236175537109 C 376.5720520019531 150.2155151367188 383.5845642089844 159.8082122802734 388.7333679199219 171.3271179199219 C 390.5374145507812 175.3615570068359 392.1293640136719 179.0556640625 393.3419189453125 183.4135131835938 C 394.7388000488281 188.4336700439453 395.4178161621094 193.6956176757812 395.4178161621094 199.5000152587891 C 395.4178161621094 226.3113098144531 390.4029541015625 251.4998626708984 380.5125122070312 274.3658752441406 C 375.7579040527344 285.358154296875 369.8446044921875 295.8355712890625 362.9368286132812 305.5069274902344 C 356.1287231445312 315.0387573242188 348.2590637207031 323.9224548339844 339.5464172363281 331.9111633300781 C 330.8998718261719 339.83935546875 321.3086242675781 346.9914245605469 311.0391235351562 353.168701171875 C 300.7720642089844 359.3445129394531 289.6940612792969 364.6260681152344 278.1128540039062 368.8666076660156 C 266.4487609863281 373.1375122070312 254.1192169189453 376.4090270996094 241.4666595458984 378.5902099609375 C 228.6352691650391 380.8022155761719 215.2897644042969 381.923828125 201.8008575439453 381.923828125 Z" stroke="none"/>
      <path d="M 117.4144287109375 22.52597045898438 C 102.8685607910156 22.52597045898438 89.71707153320312 24.4403076171875 78.32522583007812 28.21575927734375 C 66.26812744140625 32.21170043945312 56.37741088867188 38.24346923828125 48.927978515625 46.14337158203125 C 45.57327270507812 49.7008056640625 42.561279296875 53.80160522460938 39.9757080078125 58.33187866210938 C 37.50527954101562 62.66046142578125 35.34567260742188 67.51882934570312 33.55697631835938 72.77206420898438 C 31.86001586914062 77.75570678710938 30.441162109375 83.2591552734375 29.33981323242188 89.12957763671875 C 28.30572509765625 94.64151000976562 27.51541137695312 100.6714172363281 26.99090576171875 107.0517578125 C 24.93484497070312 132.0633544921875 27.04501342773438 160.3380126953125 29.38531494140625 187.1576385498047 C 35.6490478515625 216.4220581054688 42.60617065429688 241.02490234375 50.65447998046875 262.3735961914062 C 55.15252685546875 274.3050231933594 60.08526611328125 285.4111328125 65.315673828125 295.3833618164062 C 70.86697387695312 305.9673461914062 76.95672607421875 315.6634216308594 83.41586303710938 324.2021484375 C 90.21112060546875 333.1853637695312 97.64840698242188 341.197021484375 105.5211181640625 348.0145568847656 C 109.5955505371094 351.54296875 113.880126953125 354.8331298828125 118.255615234375 357.7936706542969 C 122.7245788574219 360.8174133300781 127.4197998046875 363.5861511230469 132.2109069824219 366.0230102539062 C 137.1000061035156 368.5097045898438 142.2320556640625 370.7236022949219 147.4645080566406 372.603271484375 C 152.7998046875 374.5198059082031 158.3951721191406 376.144775390625 164.0951080322266 377.4329528808594 C 169.9028625488281 378.7454528808594 175.9879608154297 379.7465209960938 182.1814575195312 380.4083557128906 C 188.4873657226562 381.0821533203125 195.0883178710938 381.423828125 201.8008575439453 381.423828125 C 215.2613677978516 381.423828125 228.5783081054688 380.3046569824219 241.3817138671875 378.0974731445312 C 254.0047149658203 375.9213562011719 266.3049926757812 372.65771484375 277.94091796875 368.3971252441406 C 289.492431640625 364.1674194335938 300.54150390625 358.8997192382812 310.7814331054688 352.7402038574219 C 321.0222778320312 346.5801696777344 330.5865173339844 339.4482727050781 339.20849609375 331.5426025390625 C 347.8955688476562 323.5773620605469 355.7420043945312 314.7199096679688 362.5299682617188 305.21630859375 C 369.4172058105469 295.5736083984375 375.3130187988281 285.1272583007812 380.0536193847656 274.1673583984375 C 389.9167785644531 251.3643646240234 394.9178161621094 226.2426605224609 394.9178161621094 199.5000152587891 C 394.9178161621094 193.7415161132812 394.2447509765625 188.5234069824219 392.8602294921875 183.5475616455078 C 391.6569213867188 179.2229156494141 390.0725708007812 175.5469665527344 388.2768249511719 171.5311126708984 C 383.15625 160.0751647949219 376.1786193847656 150.5316619873047 365.6523742675781 140.5870666503906 C 357.9373168945312 133.2977600097656 342.22998046875 120.6939697265625 325.6359558105469 108.4773254394531 C 307.15380859375 94.87051391601562 290.9690246582031 84.19796752929688 281.2315673828125 79.1961669921875 C 271.3149108886719 74.10232543945312 263.0861206054688 69.60037231445312 255.8260192871094 65.62841796875 C 234.8465118408203 54.15060424804688 219.6884613037109 45.85772705078125 184.7519683837891 34.22665405273438 C 161.7592620849609 26.572021484375 138.4743041992188 22.52597045898438 117.4144287109375 22.52597045898438 M 117.4143981933594 21.52597045898438 C 138.9419860839844 21.52597045898438 162.3751220703125 25.72305297851562 185.0678100585938 33.27786254882812 C 232.4669189453125 49.05792236328125 243.7570190429688 58.822509765625 281.6884765625 78.30667114257812 C 303.3622741699219 89.43975830078125 350.5721130371094 124.9633178710938 366.339111328125 139.8601684570312 C 376.7191772460938 149.6666717529297 383.8857116699219 159.2566070556641 389.1897583007812 171.1230621337891 C 392.5760192871094 178.6957092285156 395.9178161621094 186.5085601806641 395.9178161621094 199.5000152587891 C 395.9178161621094 309.6807556152344 311.2008666992188 382.423828125 201.8008575439453 382.423828125 C 92.4007568359375 382.423828125 51.18295288085938 293.8140563964844 28.39450073242188 187.3063201904297 C 23.60995483398438 132.4905090332031 20.176513671875 75.174560546875 48.20040893554688 45.45730590820312 C 63.85409545898438 28.85708618164062 88.96923828125 21.52597045898438 117.4143981933594 21.52597045898438 Z" stroke="none" fill="#1f1fd5"/>
    </g>
    <path id="Path_5" data-name="Path 5" d="M1747.74,179.8,1927.1,88.664,1941.084,98l6.71,5.162-187.25,100.576Z" transform="translate(-1629)" fill="#ffc921" stroke="#fff" stroke-width="1"/>
    <path id="Path_6" data-name="Path 6" d="M1704.5,201.214l204.755-103.7,10.271,8.475,4.842,4.442,1.78,1.686,1.481,1.894L1714.518,219.39Z" transform="translate(-1557 31)" fill="#ffc921" stroke="#fff" stroke-width="1"/>
  </g>
</svg>
